<svg xmlns="http://www.w3.org/2000/svg" enable-background="new 0 0 100 100" viewBox="0 0 100 100"><path d="M32.6,67.4l1,1.9L23.8,79c-0.4,0.4-0.9,0.6-1.4,0.6s-1-0.2-1.4-0.6c-0.8-0.8-0.8-2,0-2.8l9.8-9.8L32.6,67.4z M81.7,48.2
	c-0.1-1.5-1.1-2.8-2.6-3.2l-6.2-2.1c-0.5-0.2-1-0.6-1.2-1.1c-0.2-0.5-0.2-1.1,0-1.6l4.7-11.7c0.6-1.4,0.3-3-0.8-4.1
	c-1.1-1.1-2.6-1.4-4.1-0.8l-11.7,4.7c-0.5,0.2-1.1,0.2-1.6,0c-0.5-0.2-0.9-0.7-1-1.2l-2.1-6.2c-0.5-1.5-1.7-2.4-3.2-2.6
	c-1.5-0.1-2.9,0.6-3.6,2l-6.9,13c-0.3,0.6-0.8,0.9-1.5,1c-0.6,0.1-1.2-0.1-1.7-0.5l-6.1-6c-0.7-0.7-1.6-1.1-2.6-1.1
	c-0.5,0-1,0.1-1.5,0.3c-1.5,0.6-2.3,2-2.3,3.5l0.5,15.8c0,0.9-0.5,1.7-1.3,1.9l-4,1.4c-1.5,0.5-2.4,1.7-2.5,3.3
	c-0.1,1.5,0.7,2.9,2,3.6l13.4,6.9l5.8-5.8V47.2c0-1.1,0.9-2,2-2c1.1,0,2,0.9,2,2v6.5l10-10c0.8-0.8,2-0.8,2.8,0c0.8,0.8,0.8,2,0,2.8
	l-10,10h6.5c1.1,0,2,0.9,2,2c0,1.1-0.9,2-2,2H42.3l-5.8,5.8l6.9,13.4c0.7,1.4,2.1,2.1,3.6,2c1.5-0.1,2.8-1,3.3-2.5l1.4-4
	c0.3-0.8,1.1-1.4,1.9-1.3l15.8,0.5c1.6,0,2.9-0.8,3.5-2.3c0.6-1.5,0.3-3-0.8-4.1l-6-6.1c-0.4-0.5-0.6-1.1-0.5-1.7
	c0.1-0.6,0.5-1.2,1-1.5l13-6.9C81.1,51.1,81.8,49.7,81.7,48.2z"/></svg>